HIERARCHY
ROOT Hips
{
    OFFSET 0.000000 0.000000 0.000000
    CHANNELS 6 Xposition Yposition Zposition Zrotation Xrotation Yrotation
    JOINT Spine
    {
        OFFSET -0.000000 7.315584 0.000000
        CHANNELS 3 Zrotation Xrotation Yrotation
        JOINT Spine1
        {
            OFFSET -0.000000 21.742830 0.000000
            CHANNELS 3 Zrotation Xrotation Yrotation
            JOINT Neck
            {
                OFFSET -0.000000 21.653538 1.968503
                CHANNELS 3 Zrotation Xrotation Yrotation
                JOINT Head
                {
                    OFFSET -0.000000 12.490022 -1.784289
                    CHANNELS 3 Zrotation Xrotation Yrotation
                    End Site
                    {
                        OFFSET -0.000000 22.303610 0.000000
                    }
                }
            }
            JOINT LeftShoulder
            {
                OFFSET 3.565460 21.440739 -0.045508
                CHANNELS 3 Zrotation Xrotation Yrotation
                JOINT LeftArm
                {
                    OFFSET 5.865323 0.000000 0.000000
                    CHANNELS 3 Zrotation Xrotation Yrotation
                    JOINT LeftForeArm
                    {
                        OFFSET 30.083149 0.000000 0.000000
                        CHANNELS 3 Zrotation Xrotation Yrotation
                        JOINT LeftHand
                        {
                            OFFSET 21.313328 0.000000 0.000000
                            CHANNELS 3 Zrotation Xrotation Yrotation
                            End Site
                            {
                                OFFSET 13.382167 0.000000 0.000000
                            }
                        }
                    }
                }
            }
            JOINT RightShoulder
            {
                OFFSET -3.556053 21.440739 -0.045508
                CHANNELS 3 Zrotation Xrotation Yrotation
                JOINT RightArm
                {
                    OFFSET -5.865323 0.000000 0.000000
                    CHANNELS 3 Zrotation Xrotation Yrotation
                    JOINT RightForeArm
                    {
                        OFFSET -30.083149 0.000000 0.000000
                        CHANNELS 3 Zrotation Xrotation Yrotation
                        JOINT RightHand
                        {
                            OFFSET -21.313328 0.000000 0.000000
                            CHANNELS 3 Zrotation Xrotation Yrotation
                            End Site
                            {
                                OFFSET -13.382167 0.000000 0.000000
                            }
                        }
                    }
                }
            }
        }
    }
    JOINT LeftUpLeg
    {
        OFFSET 8.921444 0.000000 0.000000
        CHANNELS 3 Zrotation Xrotation Yrotation
        JOINT LeftLeg
        {
            OFFSET -0.000000 -39.632927 0.000000
            CHANNELS 3 Zrotation Xrotation Yrotation
            JOINT LeftFoot
            {
                OFFSET -0.000000 -38.058365 0.000000
                CHANNELS 3 Zrotation Xrotation Yrotation
                JOINT LeftToeBase
                {
                    OFFSET -0.000000 -5.798938 13.382167
                    CHANNELS 3 Zrotation Xrotation Yrotation
                    End Site
                    {
                        OFFSET -0.000000 0.000000 3.568577
                    }
                }
            }
        }
    }
    JOINT RightUpLeg
    {
        OFFSET -8.921444 0.000000 0.000000
        CHANNELS 3 Zrotation Xrotation Yrotation
        JOINT RightLeg
        {
            OFFSET -0.000000 -39.632927 0.000000
            CHANNELS 3 Zrotation Xrotation Yrotation
            JOINT RightFoot
            {
                OFFSET -0.000000 -38.058365 0.000000
                CHANNELS 3 Zrotation Xrotation Yrotation
                JOINT RightToeBase
                {
                    OFFSET -0.000000 -5.798938 13.382167
                    CHANNELS 3 Zrotation Xrotation Yrotation
                    End Site
                    {
                        OFFSET -0.000000 0.000000 3.568577
                    }
                }
            }
        }
    }
}
MOTION
Frames:    4
Frame Time:    0.004000
-5.076955    81.470558    -71.577248    0.964295    -3.941993    3.408166    -2.094995    -6.519202    -1.517802    0.434922    5.380671    -1.418866    -2.580076    23.508125    3.534704    -1.176241    -1.950208    3.310824    -6.218605    12.528614    -7.296546    -32.769440    55.823200    -22.370005    4.846613    -11.611456    -24.349592    -2.964041    -10.571863    -0.464452    8.584281    13.462418    -4.035867    39.604523    57.146782    13.492260    -1.608573    -8.893080    28.577560    -1.885930    -8.496844    0.523389    -4.171601    9.057013    3.041078    -1.415590    2.372983    2.395233    -2.674729    -7.717430    -0.914555    0.000000    0.000000    0.000000    -1.454914    -19.340418    1.139324    1.782291    46.668995    6.451439    1.257944    -7.243126    -10.011403    0.000000    0.000000    0.000000    
-5.044909    81.444939    -71.153625    0.884125    -3.895716    3.482780    -1.868571    -6.507215    -1.583262    0.013394    5.234828    -1.477557    -2.087626    23.731794    3.509189    -1.381702    -2.050358    3.280200    -5.804302    12.932704    -7.351164    -32.319206    55.336773    -22.932613    4.866645    -11.687965    -24.395380    -2.954519    -10.641718    -0.491873    8.790464    13.611453    -3.898090    39.552673    57.193222    13.540011    -1.572233    -8.995812    28.520763    -2.140043    -8.608737    0.411546    -4.089212    9.427182    3.090535    -1.436931    2.251394    1.199245    -2.388964    -8.030824    0.263014    0.000000    0.000000    0.000000    -1.374571    -19.666058    1.124547    1.757450    45.544209    6.640113    1.188437    -7.193686    -10.325195    0.000000    0.000000    0.000000    
-5.012612    81.426971    -70.704887    0.874646    -3.956979    3.519371    -1.910339    -6.455823    -1.632774    0.081914    5.266054    -1.528711    -2.100879    23.811586    3.518631    -1.349302    -2.195160    3.290916    -5.759972    12.910293    -7.400533    -32.033997    55.309238    -23.180216    4.980629    -11.799066    -24.401907    -3.000997    -10.727127    -0.543840    8.807995    13.588486    -3.867860    39.816357    56.616127    13.369872    -1.516040    -8.706879    28.313635    -1.781617    -8.338022    0.591734    -4.051917    9.783423    3.850574    -1.471731    2.350320    0.294702    -2.676493    -8.173336    0.446192    0.000000    0.000000    0.000000    -1.377034    -19.821001    1.309457    2.069859    44.308445    5.830228    1.178869    -7.192908    -10.028460    0.000000    0.000000    0.000000    
-4.976429    81.411377    -70.271912    0.816671    -4.003966    3.556304    -1.865777    -6.415555    -1.675666    0.107104    5.314858    -1.576008    -1.993628    23.907219    3.479496    -1.441251    -2.341665    3.239483    -5.719823    12.914687    -7.440215    -31.737198    55.218246    -23.433924    5.088563    -11.944175    -24.418264    -3.017476    -10.844842    -0.704466    8.820561    13.566322    -3.849788    39.535019    57.179916    13.577633    -1.627596    -9.035369    28.285334    -2.105598    -8.637095    0.371648    -3.990727    10.261685    3.841738    -1.512754    2.092222    0.472585    -2.492172    -8.449677    0.405592    0.000000    0.000000    0.000000    -1.323645    -19.997599    1.359768    2.195548    43.107822    5.691898    1.130172    -7.164406    -10.191248    0.000000    0.000000    0.000000    
